HIERARCHY
ROOT Hips
{
	OFFSET -0.179506 -22.333345 2.821913
	CHANNELS 6 Xposition Yposition Zposition Zrotation Yrotation Xrotation 
	JOINT LeftUpLeg
	{
		OFFSET 6.951974 -9.140623 -0.681533
		CHANNELS 3 Zrotation Yrotation Xrotation
		JOINT LeftLeg
		{
			OFFSET 3.427654 -37.519855 -0.449580
			CHANNELS 3 Zrotation Yrotation Xrotation
			JOINT LeftFoot
			{
				OFFSET -1.359570 -39.796059 -4.369333
				CHANNELS 3 Zrotation Yrotation Xrotation
				JOINT LeftToe
				{
					OFFSET 2.635814 -5.579078 11.928840
					CHANNELS 3 Zrotation Yrotation Xrotation
					End Site
					{
						OFFSET 0.000000 0.000000 0.000000
					}
				}
			}
		}
	}
	JOINT RightUpLeg
	{
		OFFSET -6.767048 -9.052170 -0.431982
		CHANNELS 3 Zrotation Yrotation Xrotation
		JOINT RightLeg
		{
			OFFSET -3.829005 -38.256897 -0.885003
			CHANNELS 3 Zrotation Yrotation Xrotation
			JOINT RightFoot
			{
				OFFSET 1.577377 -39.841461 -4.231180
				CHANNELS 3 Zrotation Yrotation Xrotation
				JOINT RightToe
				{
					OFFSET -2.537174 -4.814398 12.334795
					CHANNELS 3 Zrotation Yrotation Xrotation
					End Site
					{
						OFFSET 0.000000 0.000000 0.000000
					}
				}
			}
		}
	}
	JOINT Spine
	{
		OFFSET -0.253288 10.896323 -2.669631
		CHANNELS 3 Zrotation Yrotation Xrotation
		JOINT Spine1
		{
			OFFSET 0.548704 13.518043 0.109247
			CHANNELS 3 Zrotation Yrotation Xrotation
			JOINT Spine2
			{
				OFFSET 0.145701 5.292222 2.542457
				CHANNELS 3 Zrotation Yrotation Xrotation
				JOINT Neck
				{
					OFFSET -0.277840 21.387037 -4.285703
					CHANNELS 3 Zrotation Yrotation Xrotation
					JOINT Head
					{
						OFFSET 0.515184 6.496960 5.134897
						CHANNELS 3 Zrotation Yrotation Xrotation
						End Site
						{
							OFFSET 0.000000 0.000000 0.000000
						}
					}
				}
				JOINT LeftShoulder
				{
					OFFSET 7.884473 12.174932 -3.408961
					CHANNELS 3 Zrotation Yrotation Xrotation
					JOINT LeftArm
					{
						OFFSET 9.097692 3.046888 -0.886815
						CHANNELS 3 Zrotation Yrotation Xrotation
						JOINT LeftForeArm
						{
							OFFSET 25.961220 -1.277207 -2.745643
							CHANNELS 3 Zrotation Yrotation Xrotation
							JOINT LeftHand
							{
								OFFSET 24.923361 0.898606 -0.117091
								CHANNELS 3 Zrotation Yrotation Xrotation
								End Site
								{
									OFFSET 0.000000 0.000000 0.000000
								}
							}
						}
					}
				}
				JOINT RightShoulder
				{
					OFFSET -8.175920 11.883285 -3.861528
					CHANNELS 3 Zrotation Yrotation Xrotation
					JOINT RightArm
					{
						OFFSET -9.601238 3.255117 -0.914307
						CHANNELS 3 Zrotation Yrotation Xrotation
						JOINT RightForeArm
						{
							OFFSET -25.374195 -1.332924 -2.140099
							CHANNELS 3 Zrotation Yrotation Xrotation
							JOINT RightHand
							{
								OFFSET -25.529810 0.777228 -0.555919
								CHANNELS 3 Zrotation Yrotation Xrotation
								End Site
								{
									OFFSET 0.000000 0.000000 0.000000
								}
							}
						}
					}
				}
			}
		}
	}
}
MOTION
Frames: 10
Frame Time: 0.033333
62.519886 55.469395 93.117477 -173.592181 0.173023 86.308939 4.002749 2.634712 7.203490 -5.136351 -3.522213 -6.883071 2.065402 7.650839 -4.875357 nan nan nan -3.540279 -4.803326 4.930566 3.324898 -2.565542 -1.150769 2.747645 -6.352778 -6.849823 nan nan nan -0.664935 0.807073 5.016492 2.148194 -2.166824 -0.742198 0.964973 -0.760916 -2.468985 1.024933 0.884741 -0.738633 1.931428 -0.269229 21.124269 -27.350143 -0.169266 6.866011 -55.001009 -7.140959 17.499888 7.530482 -63.103124 0.666822 23.682825 -13.600937 -38.980833 26.631407 1.556494 5.121224 50.923278 3.490578 19.960606 -30.325103 72.677880 -25.418259 -8.353286 10.949895 -48.906680 
62.465111 55.460152 93.052330 -173.540004 0.209518 86.732855 3.945499 2.465308 6.677359 -5.093216 -3.602265 -6.854023 2.278783 7.849771 -4.743441 nan nan nan -3.552670 -4.750505 4.464298 3.450183 -2.444964 -1.125023 2.612197 -6.667567 -6.852310 nan nan nan -0.498829 0.754991 4.243688 2.114561 -2.148982 -0.467371 0.903612 -0.812746 -2.383647 1.023342 0.723656 -0.920985 2.017062 0.126420 21.232978 -27.410378 -0.147706 6.921748 -54.938243 -7.189017 17.550482 7.375430 -63.223801 0.933751 24.907237 -12.786867 -39.023839 26.558484 1.508250 5.202035 50.885621 3.621964 19.924757 -30.076641 72.746144 -24.929126 -8.553097 10.815065 -49.160456 
62.446808 55.457756 93.021965 -173.517241 0.217151 86.830745 3.918200 2.440630 6.534102 -5.070488 -3.638045 -6.794910 2.311435 7.873907 -4.769296 nan nan nan -3.554747 -4.720735 4.383999 3.434293 -2.339326 -1.131363 2.621789 -6.679870 -6.869102 nan nan nan -0.440104 0.727022 4.081681 2.089519 -2.145884 -0.411953 0.864009 -0.828528 -2.285363 0.950769 0.476338 -0.939811 2.018137 0.090775 21.043982 -27.386147 -0.094110 6.836927 -54.929233 -7.236696 17.613782 7.227149 -63.320962 1.076800 25.371697 -12.422147 -39.094593 26.508907 1.476602 5.074488 50.918649 3.635825 19.989043 -29.871300 72.819851 -24.757956 -8.607740 10.702373 -49.154230 
62.434559 55.469574 93.013756 -173.554726 0.218759 86.819520 3.902766 2.438206 6.557521 -5.053796 -3.625213 -6.777920 2.317954 7.874064 -4.807910 nan nan nan -3.561731 -4.669016 4.437447 3.401139 -2.234371 -1.156419 2.657717 -6.598580 -6.865615 nan nan nan -0.411024 0.737491 4.050530 2.083264 -2.134488 -0.359590 0.841587 -0.827530 -2.267139 0.906539 0.324622 -0.898296 1.987400 -0.017684 20.929912 -27.390953 -0.069868 6.788097 -54.920809 -7.252702 17.640872 7.191184 -63.326182 1.116149 25.523808 -12.346883 -39.135775 26.494088 1.473838 5.009092 50.971535 3.608983 20.030884 -29.862258 72.808453 -24.702408 -8.685876 10.649892 -49.017300 
62.438213 55.467655 93.019180 -173.641489 0.238178 86.790673 3.931967 2.442187 6.618467 -5.038410 -3.625805 -6.797910 2.338860 7.853885 -4.817576 nan nan nan -3.545134 -4.665512 4.417906 3.427931 -2.298858 -1.123037 2.650366 -6.562834 -6.846986 nan nan nan -0.399556 0.766518 4.077631 2.092166 -2.100835 -0.293138 0.843651 -0.809620 -2.293841 0.795971 0.207645 -0.767376 1.957930 -0.134568 20.779425 -27.426572 -0.096562 6.756723 -54.883924 -7.210570 17.662252 7.350083 -63.351524 1.058511 25.330531 -12.371568 -38.993161 26.550260 1.547056 4.990053 50.937588 3.578115 19.989466 -30.133073 72.775476 -24.880996 -8.457633 10.754556 -48.817202 
62.563526 55.525883 92.872833 -174.028102 0.531573 87.781960 4.407856 1.513466 5.852024 -5.397232 -2.198082 -7.228389 2.666094 7.537930 -4.621064 nan nan nan -3.017777 -3.752526 3.273014 3.490003 -3.236268 -1.104437 1.923196 -6.387840 -6.731009 nan nan nan -0.281077 0.600997 2.393493 2.398375 -1.613484 0.865869 0.530755 -0.683380 -2.997363 1.589776 1.394264 -0.146184 1.116726 -1.905198 20.512060 -27.360198 0.508600 7.548329 -54.406546 -8.267998 16.922952 4.947871 -62.935553 4.804869 8.309134 -22.917628 -43.675036 26.689759 0.557614 5.915151 51.089532 4.735173 19.845649 -30.992239 72.302952 -24.155929 -4.753179 13.355407 -49.632029 
62.593655 55.492878 92.855515 -174.002897 0.507219 87.899030 4.420928 1.537506 5.628689 -5.420077 -2.183956 -7.091322 2.604703 7.483968 -4.579771 nan nan nan -3.025154 -3.741217 3.046117 3.467884 -3.341849 -0.979944 1.895697 -6.365955 -6.708819 nan nan nan -0.340630 0.617341 2.370876 2.400380 -1.652065 0.828792 0.520195 -0.712165 -3.006051 1.413493 1.259137 0.012611 1.171169 -2.111725 20.239713 -27.306786 0.535680 7.517742 -54.443355 -8.283032 16.934431 5.295183 -62.917937 4.560073 8.209511 -22.996116 -43.434419 26.752962 0.580698 5.810998 51.054975 4.754689 19.841398 -30.702312 72.285818 -23.810315 -4.530787 13.532924 -49.591205 
62.617596 55.502087 92.829041 -174.032734 0.509187 87.998030 4.456442 1.535117 5.549275 -5.451015 -2.147122 -7.116610 2.605107 7.483490 -4.503860 nan nan nan -2.999344 -3.716936 2.904188 3.455151 -3.359788 -0.920101 1.859931 -6.355044 -6.709237 nan nan nan -0.387198 0.607073 2.243461 2.404442 -1.655185 0.824325 0.515785 -0.677250 -2.985277 1.235442 1.185374 0.083614 1.333763 -2.215774 20.135341 -27.218209 0.542113 7.527757 -54.518891 -8.281869 16.960524 5.333565 -62.970861 4.416741 8.565560 -22.674679 -43.227596 26.833234 0.589596 5.833634 51.041696 4.722217 19.768279 -30.618973 72.323353 -23.817140 -4.592773 13.472075 -49.371504 
62.628345 55.519569 92.812019 -174.067585 0.499891 87.993127 4.448832 1.568644 5.581198 -5.408456 -2.181002 -7.127383 2.653519 7.484916 -4.492892 nan nan nan -2.995064 -3.705690 2.909292 3.425770 -3.335691 -0.911468 1.870087 -6.345795 -6.711349 nan nan nan -0.404328 0.610426 2.232382 2.394064 -1.653166 0.814070 0.505285 -0.646363 -2.977775 1.158746 1.132300 0.160205 1.440715 -2.275368 20.068717 -27.205295 0.524781 7.508325 -54.482558 -8.246800 16.990411 5.136406 -63.046182 4.631088 8.833525 -22.445679 -43.067078 26.904821 0.621396 5.836159 51.054205 4.666822 19.719486 -30.641405 72.327868 -23.981249 -4.738989 13.409767 -49.233906 
62.297157 55.651501 92.551430 -172.829301 -0.007791 89.126048 3.454556 0.624601 4.064043 -4.998952 -2.462798 -6.817368 3.209361 7.569324 -4.299816 nan nan nan -4.086390 -3.991982 2.325307 4.148260 -3.730892 -1.607725 1.392607 -6.941305 -6.516334 nan nan nan -0.179349 0.439974 0.306803 1.957287 -2.592147 1.110633 0.167128 -0.843483 -2.594395 0.963659 1.044472 0.363746 1.700893 -2.233232 19.862766 -26.854168 0.581087 7.633242 -54.873237 -8.304202 16.757042 4.655401 -62.982283 5.498076 8.526028 -22.893997 -43.474121 26.512904 0.324969 6.291079 51.451315 5.180376 19.245720 -29.475974 72.599153 -22.496647 -4.679484 13.171051 -49.312862 
